<?xml version="1.0" encoding="UTF-8" standalone="no"?>
<svg
   xmlns:dc="http://purl.org/dc/elements/1.1/"
   xmlns:cc="http://creativecommons.org/ns#"
   xmlns:rdf="http://www.w3.org/1999/02/22-rdf-syntax-ns#"
   xmlns:svg="http://www.w3.org/2000/svg"
   xmlns="http://www.w3.org/2000/svg"
   xmlns:sodipodi="http://sodipodi.sourceforge.net/DTD/sodipodi-0.dtd"
   xmlns:inkscape="http://www.inkscape.org/namespaces/inkscape"
   version="1.1"
   x="0px"
   y="0px"
   viewBox="0 0 100 100"
   enable-background="new 0 0 100 100"
   xml:space="preserve"
   id="svg3489"
   inkscape:version="0.91 r13725"
   sodipodi:docname="noun_20008_cc.svg"><metadata
     id="metadata3509"><rdf:RDF><cc:Work
         rdf:about=""><dc:format>image/svg+xml</dc:format><dc:type
           rdf:resource="http://purl.org/dc/dcmitype/StillImage" /></cc:Work></rdf:RDF></metadata><defs
     id="defs3507" /><sodipodi:namedview
     objecttolerance="10"
     gridtolerance="10"
     guidetolerance="10"
     inkscape:pageopacity="0"
     inkscape:pageshadow="2"
     inkscape:window-width="1140"
     inkscape:window-height="858"
     id="namedview3505"
     showgrid="false"
     inkscape:zoom="5.192"
     inkscape:cx="50"
     inkscape:cy="62.5"
     inkscape:window-x="0"
     inkscape:window-y="0"
     inkscape:window-maximized="0"
     inkscape:current-layer="svg3489" /><g
     id="g3491"><g
       id="g3493"><path
         d="M50,10c10.684,0,20.729,4.161,28.284,11.716C85.84,29.271,90,39.315,90,50s-4.16,20.729-11.716,28.284    C70.729,85.839,60.684,90,50,90c-10.685,0-20.729-4.161-28.285-11.716C14.161,70.729,10,60.685,10,50s4.161-20.729,11.715-28.284    C29.271,14.161,39.315,10,50,10 M50,0C22.386,0,0,22.386,0,50s22.386,50,50,50s50-22.386,50-50S77.614,0,50,0L50,0z"
         id="path3495" style="fill:#9fe8e7"/></g><g
       id="g3497"><polygon
         points="66.465,73.535 45,52.071 45,30 55,30 55,47.929 73.535,66.464   "
         id="polygon3499" style="fill:#9fe8e7"/></g></g></svg>