<?xml version="1.0" encoding="UTF-8" standalone="no"?>
<svg
   xmlns:dc="http://purl.org/dc/elements/1.1/"
   xmlns:cc="http://creativecommons.org/ns#"
   xmlns:rdf="http://www.w3.org/1999/02/22-rdf-syntax-ns#"
   xmlns:svg="http://www.w3.org/2000/svg"
   xmlns="http://www.w3.org/2000/svg"
   xmlns:sodipodi="http://sodipodi.sourceforge.net/DTD/sodipodi-0.dtd"
   xmlns:inkscape="http://www.inkscape.org/namespaces/inkscape"
   version="1.1"
   x="0px"
   y="0px"
   viewBox="0 0 100 100"
   enable-background="new 0 0 100 100"
   xml:space="preserve"
   id="svg3489"
   inkscape:version="0.91 r13725"
   sodipodi:docname="noun_20008_cc.svg"><metadata
     id="metadata3509"><rdf:RDF><cc:Work
         rdf:about=""><dc:format>image/svg+xml</dc:format><dc:type
           rdf:resource="http://purl.org/dc/dcmitype/StillImage" /></cc:Work></rdf:RDF></metadata><defs
     id="defs3507" /><sodipodi:namedview
     objecttolerance="10"
     gridtolerance="10"
     guidetolerance="10"
     inkscape:pageopacity="0"
     inkscape:pageshadow="2"
     inkscape:window-width="1140"
     inkscape:window-height="858"
     id="namedview3505"
     showgrid="false"
     inkscape:zoom="5.192"
     inkscape:cx="50"
     inkscape:cy="62.5"
     inkscape:window-x="0"
     inkscape:window-y="0"
     inkscape:window-maximized="0"
     inkscape:current-layer="svg3489" /><g><path d="M59.402,24.168l6.729-18.486c-2.553-0.93-5.206-1.644-7.942-2.123l-3.416,19.379   C56.365,23.217,57.915,23.626,59.402,24.168z"/><path d="M77.483,50L77.483,50c0,15.178-12.306,27.483-27.483,27.483c-15.179,0-27.483-12.306-27.483-27.483   c0-15.179,12.305-27.483,27.483-27.483V2.849C23.959,2.849,2.849,23.958,2.849,50c0,26.04,21.111,47.151,47.151,47.151   c26.04,0,47.151-21.111,47.151-47.151l0,0H77.483z"/><path d="M67.663,28.95l12.645-15.068c-2.097-1.76-4.347-3.343-6.729-4.721L63.74,26.201C65.128,27.005,66.442,27.924,67.663,28.95z   "/><path d="M77.063,45.228l19.379-3.417c-0.479-2.736-1.194-5.39-2.122-7.941l-18.487,6.728   C76.373,42.085,76.782,43.634,77.063,45.228z"/><path d="M73.799,36.26l17.04-9.838c-1.379-2.383-2.961-4.633-4.721-6.729L71.05,32.337C72.076,33.558,72.994,34.871,73.799,36.26z"/></g></svg>