<?xml version="1.0" encoding="UTF-8" standalone="no"?>
<svg
   xmlns:dc="http://purl.org/dc/elements/1.1/"
   xmlns:cc="http://creativecommons.org/ns#"
   xmlns:rdf="http://www.w3.org/1999/02/22-rdf-syntax-ns#"
   xmlns:svg="http://www.w3.org/2000/svg"
   xmlns="http://www.w3.org/2000/svg"
   xmlns:sodipodi="http://sodipodi.sourceforge.net/DTD/sodipodi-0.dtd"
   xmlns:inkscape="http://www.inkscape.org/namespaces/inkscape"
   version="1.1"
   x="0px"
   y="0px"
   viewBox="0 0 96 98"
   xml:space="preserve"
   id="svg3402"
   inkscape:version="0.91 r13725"
   sodipodi:docname="noun_25503_cc.svg"><metadata
     id="metadata3414"><rdf:RDF><cc:Work
         rdf:about=""><dc:format>image/svg+xml</dc:format><dc:type
           rdf:resource="http://purl.org/dc/dcmitype/StillImage" /></cc:Work></rdf:RDF></metadata><defs
     id="defs3412" /><sodipodi:namedview
     objecttolerance="10"
     gridtolerance="10"
     guidetolerance="10"
     inkscape:pageopacity="0"
     inkscape:pageshadow="2"
     inkscape:zoom="5.192"
     inkscape:cx="50"
     inkscape:cy="62.5"
     inkscape:window-x="0"
     inkscape:window-y="0"
     inkscape:window-maximized="0"
     inkscape:current-layer="svg3402" /><path
     style="fill:#FF5FD8" d="m 75.07496,0.00437596 20.999,36.37300004 -41.999,-10e-4 6.4,-11.094 c -13.812,-7.381 -31.096,-2.527 -38.985,11.142 -8.055,13.948 -3.275,31.794 10.676,39.85 13.948,8.043 31.781,3.269 39.838,-10.678 2.665,-4.601 3.911,-9.63 3.907,-14.589 l 17.503,0 c 0.008,7.937 -2.004,15.97 -6.251,23.335 -12.883,22.319 -41.429,29.973004 -63.748,17.078 -22.3200001,-12.88 -29.9680001,-41.426 -17.0810001,-63.747 12.7240001,-22.038 40.7050001,-29.758 62.8990001,-17.545 l 5.842,-10.12400004 z"
     id="path3404"
     inkscape:connector-curvature="0" /></svg>
