<?xml version="1.0" encoding="UTF-8" standalone="no"?>
<svg
   xmlns:dc="http://purl.org/dc/elements/1.1/"
   xmlns:cc="http://creativecommons.org/ns#"
   xmlns:rdf="http://www.w3.org/1999/02/22-rdf-syntax-ns#"
   xmlns:svg="http://www.w3.org/2000/svg"
   xmlns="http://www.w3.org/2000/svg"
   xmlns:sodipodi="http://sodipodi.sourceforge.net/DTD/sodipodi-0.dtd"
   xmlns:inkscape="http://www.inkscape.org/namespaces/inkscape"
   version="1.1"
   x="0px"
   y="0px"
   viewBox="0 0 100 100"
   xml:space="preserve"
   id="svg3396"
   inkscape:version="0.91 r13725"
   sodipodi:docname="waiting.svg"><metadata
     id="metadata3408"><rdf:RDF><cc:Work
         rdf:about=""><dc:format>image/svg+xml</dc:format><dc:type
           rdf:resource="http://purl.org/dc/dcmitype/StillImage" /></cc:Work></rdf:RDF></metadata><defs
     id="defs3406" /><sodipodi:namedview
     bordercolor="#666666"
     borderopacity="1"
     objecttolerance="10"
     gridtolerance="10"
     guidetolerance="10"
     inkscape:pageopacity="0"
     inkscape:pageshadow="2"
     inkscape:window-width="1279"
     inkscape:window-height="860"
     id="namedview3404"
     showgrid="false"
     inkscape:zoom="5.192"
     inkscape:cx="50"
     inkscape:cy="62.5"
     inkscape:window-x="0"
     inkscape:window-y="0"
     inkscape:window-maximized="0"
     inkscape:current-layer="svg3396" /><g
     id="g3398"
     transform="matrix(1.0416667,0,0,1.0416667,-2.0093735,-1.9646927)"><path
       d="M 98,50 C 98,23.49 76.509,2 50,2 38.961,2 28.799,5.736 20.69,12 L 36,12 36,25.755 C 40.119,23.371 44.898,22 50,22 c 15.464,0 28,12.536 28,28 0,3.29 -0.587,6.438 -1.631,9.368 L 70,52.999 70,81 98,81 91.354,74.353 C 95.569,67.213 98,58.893 98,50 Z"
       id="path3400"
       inkscape:connector-curvature="0"
       style="fill:#a8f5f4" /><path
       d="M 64,74.245 C 59.881,76.629 55.102,78 50,78 34.536,78 22,65.464 22,50 c 0,-3.29 0.587,-6.438 1.631,-9.369 L 30,47 30,19 2,19 8.646,25.646 C 4.43,32.787 2,41.107 2,50 2,76.509 23.49,98 50,98 61.039,98 71.2,94.264 79.309,88 L 64,88 64,74.245 Z"
       id="path3402"
       inkscape:connector-curvature="0"
       style="fill:#9fe8e7" /></g></svg>